<mxfile host="app.diagrams.net" agent="Mozilla/5.0 (Windows NT 10.0; Win64; x64) AppleWebKit/537.36 (KHTML, like Gecko) Chrome/139.0.0.0 Safari/537.36" version="28.1.2">
  <diagram id="tzSuqDF_ScziK-ApANTT" name="Page-1">
    <mxGraphModel dx="805" dy="513" grid="1" gridSize="10" guides="1" tooltips="1" connect="1" arrows="1" fold="1" page="1" pageScale="1" pageWidth="850" pageHeight="1100" math="0" shadow="0">
      <root>
        <mxCell id="0" />
        <mxCell id="1" parent="0" />
        <mxCell id="TMWBvCKsd_Bnbq9izYxE-1" value="" style="rounded=0;whiteSpace=wrap;html=1;" vertex="1" parent="1">
          <mxGeometry x="90" y="110" width="440" height="370" as="geometry" />
        </mxCell>
        <mxCell id="TMWBvCKsd_Bnbq9izYxE-2" value="[Customer]                    [Admin] &#xa;          |                              | &#xa;          |                              | &#xa;   ---------------------- Booking System ----------------------- &#xa;   |   ○ Browse Listings                                     | &#xa;   |   ○ Make Booking                                        | &#xa;   |   ○ Cancel Booking                                      | &#xa;   |   ○ Make Payment ◄───────────── [Payment Gateway]       | &#xa;   |   ○ Manage Listings                                     | &#xa;   |   ○ Manage Users                                        | &#xa;   |   ○ Generate Reports                                    | &#xa;   ------------------------------------------------------------" style="text;whiteSpace=wrap;html=1;" vertex="1" parent="1">
          <mxGeometry x="125" y="190" width="370" height="200" as="geometry" />
        </mxCell>
      </root>
    </mxGraphModel>
  </diagram>
</mxfile>
